<svg width="20" height="20" xmlns="http://www.w3.org/2000/svg"><g fill="none" fill-rule="evenodd" opacity=".8"><path opacity=".1" d="M0 0h20v20H0z"/><path d="M7.603 9.395c.172.417.604.989 1.31 1.694.703.703 1.275 1.136 1.692 1.31l.483-.484c1.197-1.197 3.093-1.31 4.363-.242l.738.622c1.109.933 1.217 2.6.258 3.726a2.98 2.98 0 0 1-1.952 1.021c-2.593.35-5.243-.874-7.952-3.584C3.835 10.75 2.609 8.1 2.953 5.555c.022-.243.07-.472.146-.697a3.01 3.01 0 0 1 .887-1.31c1.12-.954 2.788-.845 3.72.263l.62.738c1.07 1.269.958 3.166-.24 4.364l-.483.482z" stroke="#828A99" stroke-width="1.8"/></g></svg>